<svg class="Icon" focusable="false" viewBox="0 0 14 14"><svg viewBox="0 0 14 14" version="1.1" xmlns="http://www.w3.org/2000/svg" xmlns:svg="http://www.w3.org/2000/svg"><g><path fill="currentColor" d="m 6.9224418,12.374724 c 0,-0.134175 -0.9711272,-1.101225 -1.669364,-1.662356 l -0.6969897,-0.560129 0.7280293,-0.0454 C 5.7104697,10.080259 6.2150661,9.9962832 6.5018469,9.9042212 l 0.4897009,-0.157221 0.457006,0.154812 c 0.2755167,0.09333 0.7514235,0.1944298 1.2005088,0.2026178 l 0.7435014,0.04781 -0.7698329,0.618042 c -0.8248678,0.662224 -1.554642,1.399594 -1.554642,1.570816 0,0.05779 -0.032771,0.105088 -0.072824,0.105088 -0.040053,0 -0.072824,-0.03216 -0.072824,-0.07146 z M 4.1633246,9.4310847 C 3.0446015,9.1302197 2.1927543,8.3841225 1.6107516,7.1953934 1.2245365,6.4065574 0.67874676,5.7632634 0.38964231,5.7561364 c -0.081986,-0.002 -0.0317415,-0.05543 0.13506483,-0.143558 C 0.87306757,5.4285264 1.2739677,4.9530194 1.5038281,4.4512444 1.8769628,3.6367079 1.9436313,3.5355201 2.4437898,3.0246065 2.9972443,2.4592499 3.5996202,2.1160993 4.3036577,1.9651102 4.7530286,1.8687329 5.9813846,1.913808 6.2940688,2.0381359 L 6.5031679,2.1212746 6.035866,2.5494725 C 5.7788504,2.78498 5.4782003,3.1080649 5.3677546,3.267438 5.1911559,3.5222697 5.1151986,3.5673863 4.7377574,3.6416432 3.3586418,3.9129683 2.6248372,5.3943364 3.2512348,6.6425624 c 0.7981932,1.590564 3.043753,1.5478321 3.83043,-0.07289 0.1361052,-0.280404 0.1620537,-0.449182 0.1545681,-1.005372 -0.00894,-0.66442 -0.00747,-0.670176 0.2469616,-0.967424 C 7.7679093,4.2642514 8.2381292,3.9909462 8.4663308,4.0254519 8.8325053,4.0808179 9.0976452,5.6811264 8.8879167,6.5700254 8.5646484,7.9401444 7.4450146,9.0796318 6.0701732,9.4377347 5.5509926,9.5729638 4.6796079,9.5699208 4.1633246,9.4310347 Z M 7.8131226,9.4142947 7.4293895,9.2913008 7.9089622,8.8637324 C 8.1727271,8.6285685 8.4712769,8.3111324 8.5724071,8.1583134 8.7261915,7.9259314 8.8177585,7.8673404 9.13198,7.8002654 9.6575538,7.6880704 10.082386,7.4675574 10.341504,7.1724394 11.307235,6.0725334 11.019072,4.4754844 9.7351336,3.8118423 9.4290429,3.6536291 9.2639379,3.6189678 8.8158557,3.6188489 8.1887074,3.6186814 7.8024649,3.7753663 7.3350073,4.2195704 c -0.4769357,0.453211 -0.5905274,0.747011 -0.6018712,1.556709 -0.00911,0.650796 -0.026085,0.729934 -0.2074985,0.967779 -0.2495679,0.3272 -0.6867353,0.619211 -0.9562868,0.638762 -0.1895118,0.01375 -0.2234119,-0.023126 -0.3879409,-0.42188 -0.2558078,-0.619986 -0.2640365,-1.744059 -0.018,-2.458978 0.5493092,-1.5961555 1.9614464,-2.6022616 3.6524463,-2.6022616 1.5383738,0 2.7641818,0.7898788 3.4708628,2.2365348 0.410072,0.8394628 0.738631,1.2738948 1.089282,1.4402898 l 0.272962,0.129528 -0.262306,0.134571 c -0.369593,0.189612 -0.721578,0.651656 -1.066478,1.399942 -0.497678,1.079748 -1.461309,1.9054873 -2.5671863,2.1998293 -0.5245828,0.139623 -1.4621707,0.127006 -1.9398695,-0.0261 z"></path></g></svg></svg>
